<?xml version="1.0" encoding="UTF-8"?>
<svg width="40px" height="40px" viewBox="0 0 40 30" version="1.1" xmlns="http://www.w3.org/2000/svg" xmlns:xlink="http://www.w3.org/1999/xlink">
    <!-- Generator: Sketch 63.1 (92452) - https://sketch.com -->
    <title>OL_logo_image_solo</title>
    <desc>Created with Sketch.</desc>
    <defs>
        <linearGradient x1="-1.21084125%" y1="49.9820232%" x2="99.7211934%" y2="49.9820232%" id="linearGradient-1">
            <stop stop-color="#586382" offset="0%"></stop>
            <stop stop-color="#363954" offset="48%"></stop>
            <stop stop-color="#363954" offset="100%"></stop>
        </linearGradient>
        <linearGradient x1="-24854.8131%" y1="-36336.2342%" x2="-24854.7531%" y2="-36336.2342%" id="linearGradient-2">
            <stop stop-color="#4F672F" offset="0%"></stop>
            <stop stop-color="#4F672F" offset="21%"></stop>
            <stop stop-color="#526B30" offset="39%"></stop>
            <stop stop-color="#5C7632" offset="56%"></stop>
            <stop stop-color="#6C8A35" offset="73%"></stop>
            <stop stop-color="#82A539" offset="89%"></stop>
            <stop stop-color="#95BB3D" offset="100%"></stop>
        </linearGradient>
        <linearGradient x1="-541.555129%" y1="50.5884745%" x2="156.509387%" y2="49.8704724%" id="linearGradient-3">
            <stop stop-color="#4F672F" offset="0%"></stop>
            <stop stop-color="#4F672F" offset="21%"></stop>
            <stop stop-color="#526B30" offset="39%"></stop>
            <stop stop-color="#5C7632" offset="56%"></stop>
            <stop stop-color="#6C8A35" offset="73%"></stop>
            <stop stop-color="#82A539" offset="89%"></stop>
            <stop stop-color="#95BB3D" offset="100%"></stop>
        </linearGradient>
        <linearGradient x1="-349.17611%" y1="53.7666356%" x2="264.525188%" y2="47.9469359%" id="linearGradient-4">
            <stop stop-color="#586382" offset="0%"></stop>
            <stop stop-color="#363954" offset="48%"></stop>
            <stop stop-color="#363954" offset="100%"></stop>
        </linearGradient>
        <linearGradient x1="-7.59466681%" y1="50.097977%" x2="95.3355575%" y2="50.097977%" id="linearGradient-5">
            <stop stop-color="#6B8935" offset="0%"></stop>
            <stop stop-color="#95BB3D" offset="100%"></stop>
        </linearGradient>
        <linearGradient x1="-0.565890347%" y1="50.0140211%" x2="99.4790907%" y2="49.9677199%" id="linearGradient-6">
            <stop stop-color="#4F672F" offset="0%"></stop>
            <stop stop-color="#4F672F" offset="21%"></stop>
            <stop stop-color="#526B30" offset="39%"></stop>
            <stop stop-color="#5C7632" offset="56%"></stop>
            <stop stop-color="#6C8A35" offset="73%"></stop>
            <stop stop-color="#82A539" offset="89%"></stop>
            <stop stop-color="#95BB3D" offset="100%"></stop>
        </linearGradient>
        <linearGradient x1="41.415666%" y1="38.7909755%" x2="47.703833%" y2="47.1906006%" id="linearGradient-7">
            <stop stop-color="#4F672F" offset="0%"></stop>
            <stop stop-color="#4F672F" offset="21%"></stop>
            <stop stop-color="#526B30" offset="39%"></stop>
            <stop stop-color="#5C7632" offset="56%"></stop>
            <stop stop-color="#6C8A35" offset="73%"></stop>
            <stop stop-color="#82A539" offset="89%"></stop>
            <stop stop-color="#95BB3D" offset="100%"></stop>
        </linearGradient>
    </defs>
    <g id="Page-1" stroke="none" stroke-width="1" fill="none" fill-rule="evenodd">
        <g id="OL_logo_image_solo">
            <path d="M15.023622,0.157480315 C6.80314961,0.157480315 0.125984252,6.83464567 0.157369346,15.0551181 C0.188976378,23.2755906 6.83464567,29.9527559 15.0551181,29.9213708 C22.1102362,29.9213708 28.2204724,24.9448819 29.6377953,18.015748 L28.8818898,18.2677165 C28.503937,18.3937008 28.1259843,18.519685 27.7165354,18.6141732 L27.3700787,18.7086614 L26.8031496,18.8661417 L26.015748,19.0866142 L25.8897638,19.1181102 C25.3858268,19.2440945 24.8818898,19.4015748 24.3149606,19.5275591 C19.2125984,20.8503937 15.2125984,21.4173228 12.2834646,21.4173228 L12.2519685,21.4173228 C10.4566929,21.4173228 9.07086614,21.1968504 8.12598425,20.8188976 C7.71653543,20.6614173 7.37007874,20.4409449 7.05511811,20.1574803 C6.83464567,19.9370079 6.67716535,19.6850394 6.58267717,19.4015748 C6.5511811,19.2755906 6.51968504,19.1496063 6.51968504,18.992126 C6.51968504,18.6141732 6.64566929,18.2362205 6.83464567,17.9212598 C7.33858268,17.1338583 8,16.4724409 8.78740157,15.9370079 C9.92125984,15.1496063 11.1496063,14.4566929 12.4409449,13.9212598 C12.4094488,13.6377953 12.4094488,13.3228346 12.4724409,13.0393701 C12.8503937,10.015748 15.5590551,6.33070866 19.9685039,5.07086614 C20.976378,4.78740157 22.0472441,4.62992126 23.0866142,4.62992126 C24.0944882,4.62992126 25.1338583,4.75590551 26.1102362,5.00787402 C23.2755906,1.95275591 19.2440945,0.157480315 15.023622,0.157480315" id="Path" fill="url(#linearGradient-1)" fill-rule="nonzero"></path>
            <polygon id="Path" fill="#FFFFFF" fill-rule="nonzero" points="14.5511811 13.7322835 14.5511811 13.7322835 14.488189 13.7322835"></polygon>
            <path d="M14.1732283,13.6692913 L14.1732283,13.6692913 C14.1417323,13.6692913 14.1102362,13.6377953 14.0787402,13.6062992 L14.0472441,13.5748031 L13.984252,13.511811 L13.9527559,13.480315 L13.9212598,13.4173228 L13.8897638,13.3858268 L13.9212598,13.4173228 L13.9527559,13.480315 L13.984252,13.511811 L14.0472441,13.5748031 L14.0787402,13.6062992 C14.0787402,13.6377953 14.1102362,13.6377953 14.1732283,13.6692913 L14.1732283,13.6692913 C14.2047244,13.6692913 14.2677165,13.7007874 14.3307087,13.7007874 L14.3937008,13.7007874 L14.3307087,13.7007874 C14.2677165,13.6692913 14.2047244,13.6692913 14.1732283,13.6692913" id="Path" fill="#FFFFFF" fill-rule="nonzero"></path>
            <line x1="15.0866142" y1="14.0787402" x2="15.023622" y2="14.0787402" id="Path"></line>
            <polyline id="Path" fill="url(#linearGradient-2)" fill-rule="nonzero" points="14.2362205 13.3228346 14.2362205 13.2598425 14.2362205 13.3228346"></polyline>
            <path d="M27.8110236,14.8661417 C27.2125984,14.9291339 26.5511811,15.0551181 25.8582677,15.1811024 L26.8661417,16.3149606 L27.8110236,14.8661417" id="Path" fill="url(#linearGradient-3)" fill-rule="nonzero"></path>
            <polygon id="Path" fill="#FFFFFF" fill-rule="nonzero" points="14.5511811 13.7322835 14.5511811 13.7322835 14.488189 13.7322835"></polygon>
            <path d="M14.1732283,13.6692913 L14.1732283,13.6692913 C14.1417323,13.6692913 14.1102362,13.6377953 14.0787402,13.6062992 L14.0472441,13.5748031 L13.984252,13.511811 L13.9527559,13.480315 L13.9212598,13.4173228 L13.8897638,13.3858268 L13.9212598,13.4173228 L13.9527559,13.480315 L13.984252,13.511811 L14.0472441,13.5748031 L14.0787402,13.6062992 C14.0787402,13.6377953 14.1102362,13.6377953 14.1732283,13.6692913 L14.1732283,13.6692913 C14.2047244,13.6692913 14.2677165,13.7007874 14.3307087,13.7007874 L14.3937008,13.7007874 L14.3307087,13.7007874 C14.2677165,13.6692913 14.2047244,13.6692913 14.1732283,13.6692913" id="Path" fill="#FFFFFF" fill-rule="nonzero"></path>
            <path d="M14.0472441,12.6929134 C14.1732283,12.0629921 14.3937008,11.4330709 14.6771654,10.8346457 C14.3937008,11.4645669 14.2047244,12.0629921 14.0472441,12.6929134" id="Path" fill="#FFFFFF" fill-rule="nonzero"></path>
            <path d="M15.496063,9.76377953 C16.7244094,8.18897638 18.4251969,7.05511811 20.3464567,6.51968504 C18.4251969,7.05511811 16.7244094,8.18897638 15.496063,9.76377953" id="Path" fill="url(#linearGradient-4)" fill-rule="nonzero"></path>
            <path d="M15.496063,9.76377953 C16.7244094,8.18897638 18.4251969,7.05511811 20.3464567,6.51968504 C18.4251969,7.05511811 16.7244094,8.18897638 15.496063,9.76377953" id="Path" fill="url(#linearGradient-4)" fill-rule="nonzero"></path>
            <path d="M28.976378,9.76377953 L29.1023622,9.7007874 C29.1653543,9.66929134 29.2598425,9.63779528 29.3228346,9.60629921 C29.511811,9.51181102 29.6377953,9.38582677 29.7637795,9.25984252 C29.8267717,9.19685039 29.8582677,9.1023622 29.8897638,9.00787402 C29.8897638,8.91338583 29.8897638,8.8503937 29.8267717,8.78740157 C29.7322835,8.69291339 29.6377953,8.56692913 29.5433071,8.47244094 L29.4488189,8.37795276 C29.3858268,8.31496063 29.2913386,8.22047244 29.1968504,8.15748031 L29.1023622,8.06299213 C29.007874,7.96850394 28.8818898,7.90551181 28.7874016,7.81102362 L28.7244094,7.77952756 C28.5984252,7.68503937 28.4409449,7.59055118 28.2834646,7.49606299 L28.1574803,7.43307087 C28.0314961,7.37007874 27.9370079,7.30708661 27.8110236,7.24409449 L27.7480315,7.21259843 C28.2519685,8.03149606 28.6614173,8.88188976 28.976378,9.76377953" id="Path" fill="#FFFFFF" fill-rule="nonzero"></path>
            <path d="M31.5905512,8.50393701 L31.5905512,8.50393701 C30.5826772,7.27559055 28.2204724,5.63779528 26.2362205,5.13385827 C26.2362205,5.13385827 26.2047244,5.1023622 26.2047244,5.1023622 C25.1968504,4.81889764 24.1259843,4.69291339 23.0551181,4.69291339 C21.984252,4.69291339 20.9448819,4.81889764 19.9370079,5.1023622 C15.5275591,6.36220472 12.8188976,10.0472441 12.4409449,13.0708661 C12.3779528,13.5748031 12.3149606,14.0472441 12.6614173,14.3937008 C13.1968504,14.8976378 13.8897638,15.1496063 14.6141732,15.1496063 C14.8031496,15.1496063 14.992126,15.1181102 15.1811024,15.0866142 C16.0629921,14.9291339 16.9448819,14.6456693 17.7637795,14.2677165 C19.1496063,13.6692913 20.5984252,13.1653543 22.0787402,12.7559055 C23.5905512,12.3149606 25.1023622,12 26.6456693,11.7480315 C27.5905512,11.6220472 28.503937,11.4015748 29.3858268,11.1181102 L29.3858268,11.0866142 L29.6377953,10.992126 C30.519685,10.6456693 31.6850394,10.0787402 31.8425197,9.35433071 C32,8.88188976 31.9370079,8.94488189 31.5905512,8.50393701 Z" id="Path" fill="#FFFFFF" fill-rule="nonzero"></path>
            <path d="M24.5354331,6.23622047 C24.3779528,6.20472441 24.1889764,6.20472441 24.0314961,6.17322835 L23.8425197,6.17322835 L24.0314961,6.17322835 C24.1889764,6.20472441 24.3464567,6.23622047 24.5354331,6.23622047" id="Path" fill="#FFFFFF" fill-rule="nonzero"></path>
            <path d="M23.8110236,6.17322835 C23.6535433,6.17322835 23.496063,6.17322835 23.3385827,6.14173228 L23.3385827,6.14173228 C23.496063,6.14173228 23.6535433,6.17322835 23.8110236,6.17322835" id="Path" fill="#FFFFFF" fill-rule="nonzero"></path>
            <polyline id="Path" fill="#FFFFFF" fill-rule="nonzero" points="27.8110236 7.24409449 27.7480315 7.21259843 27.7480315 7.21259843 27.8110236 7.24409449"></polyline>
            <polyline id="Path" fill="#FFFFFF" fill-rule="nonzero" points="27.7480315 7.21259843 27.7480315 7.21259843 27.6535433 7.18110236 27.7480315 7.21259843"></polyline>
            <path d="M19.3385827,8.22047244 C19.3070866,8.22047244 19.2755906,8.22047244 19.2440945,8.22047244 L19.2440945,8.22047244 C18.8976378,8.34645669 18.5826772,8.50393701 18.2992126,8.72440945 C17.6692913,9.16535433 17.2283465,9.82677165 17.0708661,10.5826772 C17.0393701,10.7401575 17.1338583,10.9291339 17.2913386,10.9606299 C17.2913386,10.9606299 17.3228346,10.9606299 17.3228346,10.9606299 L17.3858268,10.9606299 C17.5433071,10.9606299 17.7007874,10.8346457 17.7322835,10.6771654 C17.8582677,10.1102362 18.2047244,9.60629921 18.6771654,9.25984252 C18.8346457,9.13385827 19.023622,9.03937008 19.2125984,8.94488189 L19.3700787,8.88188976 L19.4015748,8.88188976 L19.4015748,8.88188976 C19.5590551,8.81889764 19.6535433,8.66141732 19.6535433,8.50393701 L19.6535433,8.50393701 C19.6220472,8.34645669 19.4645669,8.2519685 19.3385827,8.22047244" id="Path" fill="url(#linearGradient-5)" fill-rule="nonzero"></path>
            <path d="M8.50393701,26.488189 L9.32283465,26.2047244 C9.54330709,26.1102362 9.66929134,25.8897638 9.57480315,25.6377953 C9.48031496,25.4173228 9.25984252,25.2913386 9.00787402,25.3858268 L8.22047244,25.6692913 C8,25.7637795 7.87401575,25.984252 7.96850394,26.2362205 C8.03149606,26.4566929 8.28346457,26.5511811 8.50393701,26.488189" id="Path" fill="#FFFFFF" fill-rule="nonzero"></path>
            <path d="M4.53543307,24.8188976 L3.96850394,25.0393701 C4.18897638,25.2913386 4.40944882,25.511811 4.66141732,25.7322835 L4.8503937,25.6692913 C5.07086614,25.5748031 5.19685039,25.3228346 5.1023622,25.1023622 C5.00787402,24.8818898 4.75590551,24.7244094 4.53543307,24.8188976 L4.53543307,24.8188976 Z" id="Path" fill="#FFFFFF" fill-rule="nonzero"></path>
            <path d="M24.5669291,20.6299213 C22.3307087,21.1968504 20.3149606,21.6377953 18.4566929,21.9527559 L11.1811024,24.5669291 C10.9606299,24.6614173 10.8346457,24.8818898 10.9291339,25.1338583 C11.023622,25.3543307 11.2440945,25.480315 11.496063,25.3858268 L25.1338583,20.4724409 L24.5669291,20.6299213 Z" id="Path" fill="#FFFFFF" fill-rule="nonzero"></path>
            <path d="M7.30708661,21.7007874 L7.1496063,21.6062992 L6.23622047,21.9212598 C6.01574803,22.015748 5.88976378,22.2362205 5.98425197,22.488189 C6.07874016,22.7086614 6.2992126,22.8346457 6.5511811,22.7401575 L6.5511811,22.7401575 L8.40944882,22.0787402 C8,22.015748 7.65354331,21.8897638 7.30708661,21.7007874 Z" id="Path" fill="#FFFFFF" fill-rule="nonzero"></path>
            <path d="M12.2519685,22.5826772 C11.7795276,22.5826772 11.3385827,22.5826772 10.8976378,22.5511811 L6.36220472,24.1889764 C6.14173228,24.2834646 6.01574803,24.5354331 6.11023622,24.7559055 C6.20472441,24.976378 6.45669291,25.1023622 6.67716535,25.007874 L13.5433071,22.5511811 C13.0708661,22.5511811 12.6614173,22.5826772 12.2519685,22.5826772 Z" id="Path" fill="#FFFFFF" fill-rule="nonzero"></path>
            <path d="M39.7795276,10.5511811 C38.7086614,8.69291339 26.519685,11.0551181 22.2047244,12.1259843 C13.7952756,14.2362205 6.23622047,18.2047244 6.61417323,19.5905512 C6.61417323,19.6220472 6.64566929,19.6535433 6.64566929,19.6850394 C6.70866142,19.8425197 6.80314961,19.9685039 6.8976378,20.0944882 C6.92913386,20.1574803 6.99212598,20.1889764 7.05511811,20.2519685 C7.37007874,20.5354331 7.71653543,20.7559055 8.12598425,20.9133858 C9.07086614,21.2913386 10.4566929,21.511811 12.2519685,21.511811 L12.2834646,21.511811 C15.2125984,21.511811 19.2125984,20.9448819 24.3149606,19.6220472 C24.8818898,19.496063 25.3858268,19.3385827 25.8897638,19.2125984 L26.0472441,19.1811024 L26.8346457,18.9606299 L27.4015748,18.8031496 L27.7480315,18.7086614 C28.1574803,18.5826772 28.5354331,18.4566929 28.9133858,18.3307087 L29.6692913,18.0787402 C29.6692913,18.1102362 29.6377953,18.1417323 29.6377953,18.1732283 C34.2992126,16.6299213 40.9133858,13.984252 39.7795276,10.5511811 Z" id="Path" fill="url(#linearGradient-6)" fill-rule="nonzero"></path>
            <g id="Group" transform="translate(15.118110, 12.913386)" fill-rule="nonzero">
                <path d="M0.031496063,5.85826772 C0.409448819,7.21259843 3.62204724,7.59055118 9.35433071,6.11023622 C15.0866142,4.62992126 17.7322835,2.77165354 17.3543307,1.41732283 C16.976378,0.062992126 13.8582677,-0.346456693 8.12598425,1.13385827 C2.39370079,2.61417323 -0.31496063,4.50393701 0.031496063,5.85826772" id="Path" fill="#95BB3D"></path>
                <path d="M9.38582677,6.11023622 C14.3937008,4.81889764 17.0393701,3.24409449 17.3858268,1.95275591 C16.3464567,1.07086614 14.1732283,0.535433071 8.40944882,2.04724409 C3.4015748,3.37007874 0.724409449,5.13385827 0.409448819,6.42519685 C1.4488189,7.30708661 4.31496063,7.43307087 9.38582677,6.11023622 Z" id="Path" fill="url(#linearGradient-7)"></path>
                <path d="M15.6220472,2.26771654 C15.8425197,2.99212598 12.9448819,4.44094488 9.19685039,5.48031496 C5.4488189,6.51968504 2.23622047,6.77165354 2.01574803,6.04724409 C1.82677165,5.32283465 4.69291339,3.87401575 8.44094488,2.83464567 C12.2204724,1.79527559 15.4330709,1.54330709 15.6220472,2.26771654" id="Path" fill="#E5ECA7"></path>
                <path d="M12.7874016,2.5511811 C11.4330709,2.61417323 10.0787402,2.83464567 8.78740157,3.24409449 C6.17322835,3.96850394 4.15748031,4.97637795 4.31496063,5.48031496 C4.37795276,5.66929134 4.72440945,5.76377953 5.32283465,5.76377953 C6.67716535,5.7007874 8.03149606,5.48031496 9.32283465,5.07086614 C11.9370079,4.34645669 13.9527559,3.33858268 13.7952756,2.83464567 C13.7322835,2.64566929 13.3543307,2.5511811 12.7874016,2.5511811" id="Path" fill="#F9FBEB"></path>
            </g>
            <path d="M22.2047244,12.1259843 C26.3307087,11.0866142 37.7637795,8.88188976 39.5905512,10.3622047 C39.5275591,10.2992126 39.4330709,10.2362205 39.3700787,10.1732283 C38.9606299,9.88976378 38.519685,9.66929134 38.0472441,9.54330709 C37.3543307,9.35433071 36.6299213,9.19685039 35.8740157,9.13385827 C35.6220472,9.1023622 35.3700787,9.07086614 35.1496063,9.07086614 C32.2834646,8.69291339 27.9685039,9.22834646 21.9212598,10.8031496 C21.9212598,10.8031496 21.8897638,10.8031496 21.8897638,10.8031496 C19.8740157,11.3070866 17.8897638,11.9055118 15.9370079,12.5984252 C15.1181102,12.8818898 14.3622047,13.1968504 13.6692913,13.480315 C13.3543307,13.6062992 13.007874,13.7637795 12.6929134,13.8897638 C12.5669291,13.9527559 12.503937,13.9527559 12.4409449,13.9527559 C12.4409449,13.984252 12.4409449,13.984252 12.4409449,14.015748 C11.1496063,14.5826772 9.95275591,15.2440945 8.78740157,16.0629921 C8,16.5669291 7.33858268,17.2598425 6.83464567,18.0472441 C6.64566929,18.3622047 6.51968504,18.7401575 6.51968504,19.1181102 C6.51968504,19.1496063 6.51968504,19.2125984 6.51968504,19.2440945 C6.5511811,19.3385827 6.5511811,19.4330709 6.58267717,19.5275591 C6.58267717,19.5590551 6.61417323,19.5905512 6.61417323,19.6220472 C6.23622047,18.2047244 13.7952756,14.2677165 22.2047244,12.1259843 Z" id="Path" fill="#95BB3D" fill-rule="nonzero"></path>
        </g>
    </g>
</svg>